<?xml version="1.0" standalone="no"?>
<!DOCTYPE svg PUBLIC "-//W3C//DTD SVG 20010904//EN"
 "http://www.w3.org/TR/2001/REC-SVG-20010904/DTD/svg10.dtd">
<svg version="1.0" xmlns="http://www.w3.org/2000/svg"
 width="512.000000pt" height="512.000000pt" viewBox="0 0 512.000000 512.000000"
 preserveAspectRatio="xMidYMid meet">

<g transform="translate(0.000000,512.000000) scale(0.100000,-0.100000)"
fill="#000000" stroke="none">
<path d="M0 2560 l0 -2560 2560 0 2560 0 0 2560 0 2560 -2560 0 -2560 0 0
-2560z m2789 2134 c53 -8 126 -24 162 -35 36 -10 72 -19 80 -19 8 -1 32 -9 54
-20 22 -11 44 -19 49 -20 15 0 135 -60 141 -70 3 -6 12 -10 20 -10 8 0 31 -11
52 -25 21 -14 46 -31 57 -38 143 -95 322 -272 401 -398 34 -53 55 -85 64 -96
6 -7 11 -18 11 -25 0 -7 9 -24 20 -38 11 -14 20 -32 20 -40 0 -9 5 -21 10 -26
6 -6 20 -35 31 -65 140 -366 144 -749 12 -1149 -27 -83 -152 -340 -165 -340
-4 0 -8 -9 -8 -19 0 -11 -4 -21 -8 -23 -11 -4 -72 -97 -72 -109 0 -5 -3 -9 -7
-9 -5 -1 -24 -24 -43 -52 -19 -28 -43 -58 -52 -66 -10 -9 -18 -20 -18 -24 0
-4 -7 -16 -15 -25 -8 -10 -89 -112 -180 -228 -91 -115 -175 -221 -186 -233
-10 -13 -19 -27 -19 -32 0 -4 -7 -13 -15 -20 -12 -10 -71 -92 -100 -139 -5 -9
-12 -18 -16 -21 -8 -8 -69 -100 -69 -106 0 -3 -5 -10 -10 -17 -55 -65 -154
-264 -208 -417 -10 -30 -27 -77 -37 -105 -9 -27 -20 -63 -25 -80 -10 -41 -40
-95 -70 -125 -21 -21 -34 -25 -86 -25 -96 0 -113 21 -184 235 -21 63 -44 131
-51 150 -22 60 -111 245 -120 248 -5 2 -9 10 -9 17 0 12 -31 67 -58 100 -4 6
-23 35 -42 65 -19 30 -37 57 -40 60 -3 3 -22 30 -43 60 -43 65 -117 163 -152
204 -14 16 -25 30 -25 32 0 5 -283 362 -305 385 -8 9 -15 21 -15 27 0 5 -3 12
-7 14 -5 2 -25 26 -45 53 -21 28 -41 55 -45 60 -5 6 -24 35 -43 65 -19 30 -37
57 -40 60 -4 3 -20 30 -35 60 -16 30 -37 67 -47 82 -10 14 -18 31 -18 37 0 7
-8 24 -17 38 -20 31 -35 69 -83 208 -85 248 -105 659 -43 875 9 30 19 71 24
90 14 69 111 298 141 335 15 18 58 86 58 91 0 13 121 156 186 220 72 71 204
177 260 208 16 9 47 28 69 41 22 13 47 27 55 30 8 3 33 15 55 26 22 10 45 19
50 19 6 1 28 9 50 20 22 11 46 19 54 20 8 0 44 9 80 20 167 49 428 64 610 34z"/>
<path d="M2440 3761 c-25 -4 -81 -25 -125 -46 -99 -49 -208 -152 -247 -235
-63 -132 -63 -131 -67 -255 -3 -105 0 -129 20 -190 13 -38 31 -82 41 -97 10
-14 18 -30 18 -34 0 -9 12 -23 83 -94 67 -68 70 -70 132 -103 94 -51 160 -67
270 -67 105 0 196 22 258 63 14 9 29 17 32 17 26 0 185 152 185 176 0 4 6 15
14 23 32 36 67 146 72 231 9 122 -7 212 -52 305 -72 148 -235 277 -385 305
-57 11 -178 11 -249 1z"/>
</g>
</svg>
